<svg xmlns="http://www.w3.org/2000/svg" viewBox="0 0 1024 1024" role="img" aria-label="Doctorine">
	<defs>
		<linearGradient id="tile" x1="166" x2="858" y1="98" y2="926" gradientUnits="userSpaceOnUse">
			<stop stop-color="#fb7185" />
			<stop offset="0.58" stop-color="#e11d48" />
			<stop offset="1" stop-color="#9f1239" />
		</linearGradient>
		<linearGradient id="paper" x1="282" x2="730" y1="216" y2="872" gradientUnits="userSpaceOnUse">
			<stop stop-color="#ffffff" />
			<stop offset="1" stop-color="#fff1f2" />
		</linearGradient>
		<linearGradient id="clip" x1="342" x2="682" y1="178" y2="322" gradientUnits="userSpaceOnUse">
			<stop stop-color="#ffe4e6" />
			<stop offset="1" stop-color="#fecdd3" />
		</linearGradient>
		<filter id="shadow" x="-20%" y="-20%" width="140%" height="150%" color-interpolation-filters="sRGB">
			<feDropShadow dx="0" dy="28" stdDeviation="30" flood-color="#881337" flood-opacity="0.28" />
		</filter>
	</defs>
	<rect width="1024" height="1024" fill="#fff1f2" />
	<rect x="86" y="86" width="852" height="852" rx="196" fill="url(#tile)" />
	<path
		d="M174 536c16-157 143-288 304-316 193-33 374 80 432 261-55-20-114-31-175-31-228 0-419 156-473 367-80-49-130-135-130-229 0-18 15-52 42-52Z"
		fill="#ffffff"
		opacity="0.14"
	/>
	<g filter="url(#shadow)">
		<rect x="248" y="230" width="528" height="640" rx="84" fill="url(#paper)" />
		<path
			d="M390 170h244c34 0 62 28 62 62v92H328v-92c0-34 28-62 62-62Z"
			fill="url(#clip)"
		/>
		<rect x="426" y="214" width="172" height="58" rx="29" fill="#ffffff" opacity="0.78" />
		<path
			d="M376 408h272M376 502h188"
			fill="none"
			stroke="#fda4af"
			stroke-linecap="round"
			stroke-width="32"
		/>
		<path
			d="M512 738c-8 0-15-3-21-9L370 612c-52-50-55-130-7-178 43-43 112-44 156-4 44-40 113-39 156 4 48 48 45 128-7 178L533 729c-6 6-13 9-21 9Z"
			fill="#e11d48"
		/>
		<path
			d="M338 606h100l41-84 62 178 48-100h104"
			fill="none"
			stroke="#ffffff"
			stroke-linecap="round"
			stroke-linejoin="round"
			stroke-width="30"
		/>
		<path
			d="M342 786h340"
			fill="none"
			stroke="#fda4af"
			stroke-linecap="round"
			stroke-width="28"
			opacity="0.6"
		/>
	</g>
</svg>
